<svg xmlns="http://www.w3.org/2000/svg" viewBox="0 0 32 32">
  <rect width="32" height="32" rx="6" fill="#0b1018"/>
  <!-- PP glyphs from Syne ExtraBold, translated to vertical center -->
  <g transform="translate(0, 0.94)">
    <path d="M11.240 14.835L5.964 14.835L5.964 12.828L11.687 12.828Q12.031 12.828 12.267 12.719Q12.502 12.610 12.502 12.254Q12.502 11.887 12.267 11.784Q12.031 11.681 11.687 11.681L6.147 11.681L6.147 16.728L3.280 16.728L3.280 9.387L11.240 9.387Q12.100 9.387 12.852 9.507Q13.603 9.628 14.165 9.938Q14.727 10.247 15.048 10.809Q15.369 11.371 15.369 12.254Q15.369 13.138 15.048 13.654Q14.727 14.170 14.165 14.422Q13.603 14.675 12.852 14.755Q12.100 14.835 11.240 14.835" fill="#e9eef4"/>
    <path d="M24.740 14.835L19.464 14.835L19.464 12.828L25.187 12.828Q25.531 12.828 25.767 12.719Q26.002 12.610 26.002 12.254Q26.002 11.887 25.767 11.784Q25.531 11.681 25.187 11.681L19.647 11.681L19.647 16.728L16.780 16.728L16.780 9.387L24.740 9.387Q25.600 9.387 26.352 9.507Q27.103 9.628 27.665 9.938Q28.227 10.247 28.548 10.809Q28.869 11.371 28.869 12.254Q28.869 13.138 28.548 13.654Q28.227 14.170 27.665 14.422Q27.103 14.675 26.352 14.755Q25.600 14.835 24.740 14.835" fill="#e9eef4"/>
  </g>
  <!-- underscore bar in ember green -->
  <rect x="5" y="20" width="22" height="2.5" rx="1" fill="#00FA9A"/>
</svg>
