<?xml version="1.0" encoding="UTF-8"?>
<svg xmlns="http://www.w3.org/2000/svg" viewBox="0 0 560 230" font-family="'DM Mono',monospace" font-size="11">
  <rect width="560" height="230" rx="6" fill="#f4f4f4"/>
  <rect x="0" y="0" width="279" height="230" rx="6" fill="#fff0f0"/>
  <rect x="281" y="0" width="279" height="230" rx="6" fill="#f0fff8"/>
  <line x1="280" y1="0" x2="280" y2="230" stroke="#ccc" stroke-width="1.5" stroke-dasharray="4,3"/>
  <text x="140" y="22" text-anchor="middle" fill="#c0392b" font-size="12" font-weight="bold">⬅️ Before · O(n³)</text>
  <text x="420" y="22" text-anchor="middle" fill="#1a7a4a" font-size="12" font-weight="bold">➡️ After · O(n²) · BFS</text>
  <!-- LEFT: all-pairs red chaos lines — nodes: A(70,120) B(140,68) C(220,72) D(225,150) E(135,158) -->
  <line x1="70" y1="120" x2="140" y2="68" stroke="#e74c3c" stroke-width="1.5" opacity="0.6"/>
  <line x1="70" y1="120" x2="220" y2="72" stroke="#e74c3c" stroke-width="1.5" opacity="0.6"/>
  <line x1="70" y1="120" x2="225" y2="150" stroke="#e74c3c" stroke-width="1.5" opacity="0.6"/>
  <line x1="70" y1="120" x2="135" y2="158" stroke="#e74c3c" stroke-width="1.5" opacity="0.6"/>
  <line x1="140" y1="68" x2="220" y2="72" stroke="#e74c3c" stroke-width="1.5" opacity="0.6"/>
  <line x1="140" y1="68" x2="225" y2="150" stroke="#e74c3c" stroke-width="1.5" opacity="0.6"/>
  <line x1="140" y1="68" x2="135" y2="158" stroke="#e74c3c" stroke-width="1.5" opacity="0.6"/>
  <line x1="220" y1="72" x2="225" y2="150" stroke="#e74c3c" stroke-width="1.5" opacity="0.6"/>
  <line x1="220" y1="72" x2="135" y2="158" stroke="#e74c3c" stroke-width="1.5" opacity="0.6"/>
  <line x1="225" y1="150" x2="135" y2="158" stroke="#e74c3c" stroke-width="1.5" opacity="0.6"/>
  <circle cx="70" cy="120" r="16" fill="#fff" stroke="#e74c3c" stroke-width="2"/>
  <text x="70" y="125" text-anchor="middle" fill="#10183a" font-weight="bold">A</text>
  <circle cx="140" cy="68" r="16" fill="#fff" stroke="#e74c3c" stroke-width="2"/>
  <text x="140" y="73" text-anchor="middle" fill="#10183a" font-weight="bold">B</text>
  <circle cx="220" cy="72" r="16" fill="#fff" stroke="#e74c3c" stroke-width="2"/>
  <text x="220" y="77" text-anchor="middle" fill="#10183a" font-weight="bold">C</text>
  <circle cx="225" cy="150" r="16" fill="#fff" stroke="#e74c3c" stroke-width="2"/>
  <text x="225" y="155" text-anchor="middle" fill="#10183a" font-weight="bold">D</text>
  <circle cx="135" cy="158" r="16" fill="#fff" stroke="#e74c3c" stroke-width="2"/>
  <text x="135" y="163" text-anchor="middle" fill="#10183a" font-weight="bold">E</text>
  <text x="140" y="210" text-anchor="middle" fill="#c0392b" font-size="10">all node combinations checked — O(n³)</text>
  <!-- RIGHT: BFS tree — nodes: A(355,120) B(425,68) C(505,72) D(505,155) E(420,158) -->
  <line x1="355" y1="120" x2="425" y2="68" stroke="#00a86b" stroke-width="2.5"/>
  <line x1="355" y1="120" x2="420" y2="158" stroke="#00a86b" stroke-width="2.5"/>
  <line x1="425" y1="68" x2="505" y2="72" stroke="#00a86b" stroke-width="2.5"/>
  <line x1="420" y1="158" x2="505" y2="155" stroke="#00a86b" stroke-width="2.5"/>
  <circle cx="355" cy="120" r="16" fill="#00FA9A" stroke="#10183a" stroke-width="2"/>
  <text x="355" y="125" text-anchor="middle" fill="#10183a" font-weight="bold">A</text>
  <text x="334" y="123" text-anchor="end" fill="#10183a" font-size="9">start</text>
  <circle cx="425" cy="68" r="16" fill="#00FA9A" stroke="#10183a" stroke-width="2"/>
  <text x="425" y="73" text-anchor="middle" fill="#10183a" font-weight="bold">B</text>
  <circle cx="505" cy="72" r="16" fill="#00FA9A" stroke="#10183a" stroke-width="2"/>
  <text x="505" y="77" text-anchor="middle" fill="#10183a" font-weight="bold">C</text>
  <circle cx="505" cy="155" r="16" fill="#00FA9A" stroke="#10183a" stroke-width="2"/>
  <text x="505" y="160" text-anchor="middle" fill="#10183a" font-weight="bold">D</text>
  <circle cx="420" cy="158" r="16" fill="#00FA9A" stroke="#10183a" stroke-width="2"/>
  <text x="420" y="163" text-anchor="middle" fill="#10183a" font-weight="bold">E</text>
  <text x="420" y="210" text-anchor="middle" fill="#1a7a4a" font-size="10">each node visited exactly once — O(n²)</text>
</svg>
